<?xml version="1.0" standalone="no"?>
<!DOCTYPE svg PUBLIC "-//W3C//DTD SVG 20010904//EN"
 "http://www.w3.org/TR/2001/REC-SVG-20010904/DTD/svg10.dtd">
<svg version="1.0" xmlns="http://www.w3.org/2000/svg"
 width="121.000000pt" height="121.000000pt" viewBox="0 0 121.000000 121.000000"
 preserveAspectRatio="xMidYMid meet">
<metadata>
Created by potrace 1.14, written by Peter Selinger 2001-2017
</metadata>
<g transform="translate(0.000000,121.000000) scale(0.100000,-0.100000)"
fill="#000000" stroke="none">
<path d="M7 1103 c-4 -3 -7 -55 -7 -115 0 -82 3 -110 14 -114 18 -7 191 98
191 116 0 8 -40 38 -90 67 -93 55 -97 57 -108 46z"/>
<path d="M855 1026 c-56 -17 -83 -32 -137 -77 -26 -22 -49 -36 -52 -31 -2 4
-3 24 -1 45 5 46 -12 57 -90 57 -100 0 -94 20 -93 -297 l0 -278 -37 -32 c-81
-70 -185 -48 -216 46 -7 21 -13 112 -14 221 -3 219 -1 200 -20 200 -17 0 -166
-87 -178 -103 -4 -7 -6 -95 -4 -197 4 -203 14 -248 66 -311 78 -94 248 -115
360 -45 l39 25 5 -28 c5 -22 13 -30 38 -35 45 -9 104 -8 131 3 l24 9 -1 253
c-2 286 -2 282 72 337 85 64 144 73 189 31 42 -40 47 -78 48 -356 l1 -263 28
-9 c35 -13 164 -8 177 5 11 11 15 530 5 589 -19 113 -56 175 -132 217 -59 33
-143 43 -208 24z"/>
</g>
</svg>
